<?xml version="1.0" encoding="UTF-8"?>
<svg id="Calque_2" data-name="Calque 2" xmlns="http://www.w3.org/2000/svg" viewBox="0 0 143.99 139.85">
  <defs>
    <style>
      .cls-1, .cls-2 {
        fill: #fff;
      }

      .cls-2 {
        font-family: MyriadPro-Regular, 'Myriad Pro';
        font-size: 13.35px;
      }
    </style>
  </defs>
  <g id="Calque_6" data-name="Calque 6">
    <g>
      <g>
        <g>
          <path class="cls-1" d="M45.57,49.88c3.98-3.08,8.36-5.7,13.44-7.51-.79-.9-1.46-1.79-1.94-2.67-3.2,1.18-6.48,2-9.84,2.42-.3.7-.77,1.43-1.35,2.19,3.03-.5,5.76-1.23,8.21-2.19-2.95,1.25-5.76,2.92-8.49,4.81.09.75.07,1.77-.03,2.95Z"/>
          <path class="cls-1" d="M39.29,51.91c1.53-.38,2.36-1.52,2.28-3.68-.51-5.99,2.42-9.77,7.93-11.9-7.27,1.46-10.97,4.88-13.64,8.86-.31-.61-.33-1.4-.25-2.25-.74.62-1.2,1.51-1.38,2.64-.67,3.74-3.37,5.4-4.02,2.7-.25-1.35.03-2.84.7-3.85-1.14.32-1.91,1.07-2.39,2.14-.82,1.69-3.08,1.63-1.86,5.74.56,1.75-.04,3.66-1.32,5.65-3.59,4.79-1.59,8.13,4.81,10.32-4.53-2.61-7.02-4.91-2.33-6.16,2.11-.38,3.93-.9,4.58-2-3.24-.09-2.43-1.89-.29-4.27.86-.95,1.87-1.77,3.05-2.28,1.76-.76,3.23-.69,4.36.3-1.47-2.49-4.83-1.59-9.56,1.8,2.81-5.37,10.23-9.18,9.34-3.77Z"/>
          <path class="cls-1" d="M32.66,44.84c.32-1.23,1-2.2,2.1-2.87,1.41-.58,2.08-1.71,2.17-3.27.06-1.11.28-2.22.86-3.18,1.71-2.81,4.99-4.63,9.18-5.88-3.55-.73-7.67.35-12.23,2.86-.52.29-1.08.51-1.65.66-7.18,1.92-9.96,5.19-10.14,9.24-.07,1.66-.96,3.21-2.36,4.11-.01,0-.02.02-.04.02,3.13-.66,5.4-2.06,5.79-5.12.23-1.42.86-2.63,2.32-3.42,2.81-1.76,4.68-.59,1.56,1.93l-2.39,1.74c1.86-.81,4.13-1.57,4.37-1.35.35.39-2.95,1.9-3.22,2.53,1.74-.52,1.27.36,2.74.19.29-.03.57.13.68.39.18.41.25.88.26,1.39Z"/>
          <path class="cls-1" d="M64.44,52c-2.41-1.22-3.05-2.57-1.35-4.09l-2.02-2.66c-6.52,1.58-9.41,5.59,3.37,6.75Z"/>
          <path class="cls-1" d="M65.75,46.63c1.49-.93,5.84-1.31,5.84-1.31,0,0-.1-1.15-.12-1.19-.04-.08-6.83.29-6.83.38l1.12,2.11Z"/>
          <path class="cls-1" d="M23.89,49.75c1.76-2.17,2.59-4.16,2.91-6.05-.93,2.57-3.13,3.88-6.16,4.36-2.31.14-4.07.68-4.11,2.53,1.25-.64,2.56-.56.67,1.21-1.8,1.4-4.59,2.85-1.63,4.02,2.03.62,3.13,1.39,1.21,2.67-1.64.97-2.58.32-2.9-1.77-1.37,1.46-1.91,3.19.84,5.99,1.9,1.58,3.59,3.15,4.7,4.72.9,1.24.37,2.25-.31,1.52-2.16-2.9-4.71-2.94-4.42.37.14,1.6.92,2.74,1.66,3.6,2.54-1.15,5.03,1.12,3.05,8.69-.65,2.6-.75,5.15.3,7.59-5.89-4.77-7.33-9.46-6.51-14.1.61,2.96,1.87,5.84,3.79,8.64,0-1.58.28-3.05.81-4.42.59-1.65-.15-3.25-1.63-4.82-2.87-2.44-3.31-5.17-2.12-8.1.63-1.95-.78-4.06-2.96-6.22-1.49-1.67-1.31-3.53.92-5.62-2.27,1.54-4.85,3.86-3.69,7.67.71,1.65,1.94,2.6,1.05,3.79-1.05,1.48-1.1,3.02,1.41,4.71,1.26.9,1.14,2.96-.3,2.96-.61-.13-1.3-.71-1.35-2.27-.03-.92-.43-1.58-1.46-2.04-.36-.16-.65-.46-.83-.81-1.21-2.29-1.5-4.54-.97-6.75-1.44,3.22-1.01,6.33.67,9.37.43.77.6,1.67.5,2.54-.26,2.39-.84,4.42.61,6.37,2.36,4.03,8.27,7.44,13.71,11.64-2.66-5.56-1.72-10.93,1.71-16.16,1.56-2.82,1.4-5.58-.67-8.66-1.75-2.6-.78-6.17,1.27-10.05,1.03-2.17,1.34-4.22.15-5.99-.23-.34-.17-.8.09-1.12Z"/>
          <path class="cls-1" d="M24.13,67.13c17.32,7.71,5.79,13.22,4.19,16.2l-.06,1.52c-2.2-1.38-2.29-3.81.7-7.73-4.91,5.09-4.17,8.13-.87,10.24,1.51.98,2.75,2.15,3.74,3.52-3.27-2.06-5.12-1.75-5.26,1.38-.06,5.82,1.12,10.69,4.78,13.61-1.96-.68-4.29-2.4-6.95-5.01-3.6-4.25-7.3-7-11.17-7.79,4.43,2.58,7.78,5.89,11.16,9.63.56.62,1.22,1.14,1.96,1.53l9.24,4.89c-4.05-1.48-7.93-2.72-11.19-3.04-2.27-1.73-5.11-2.29-8.3-2.14-2.69-.48-3.58-2.11-3.71-4.22,1.79,2.82,3.99,4.33,7.06,2.95-4.19-4.81-21.08-10.26-15.22-3.8-3.97-1.43-6.24-4.87-1.86-5.15,2.31,0,4.51.25,6.61.76,1.29-.82.67-1.24-1.24-1.38-1.12-.05-2.31.09-3.57.39.12-.8.46-1.71.9-2.67,1.22-2.14,1.77-4.3.59-6.5-.77-1.52-.51-2.95.73-4.3-.22,1.69-.19,3.27,1.32,4.16,1.18.78,2.06,1.71,1.94,3.12.04,1.26.44,2.4,1.86,3.18,1.01-.44,1.77-1.08,1.49-2.56,1.62.22,3.04.82,3.57,2.98.34,1.66,1.04,2.55,2.56,1.57.8-.45,1.7-.18,2.22,1.24,1.25,3.38,2.49,6.2,5.43,7.48-2.33-2.2-3.43-4.93-2.73-8.44.54-2.35.83-4.56-.25-6.02.04,2.31,0,4.41-1.49,2.45-2.05-3.48-1.41-7.01,3.85-10.66,1.71-1.54,2.15-2.85-.14-1.88s-2.53.17-.39-2.73c1.18-1.56,1.55-3.46-1.52-6.81Z"/>
          <path class="cls-1" d="M30.74,91.74c-1.19,4.97-.51,8.79,4.35,10.01,1.78.57,4.03.97,2.74,3.07-.72,1.26-.21,1.97,1.87,1.97,1.71.04,2.97.55,3.09,2.21.27.94,1.28,1.73,2.72,2.44-13.1-3.2-18.56-9.55-14.77-19.71Z"/>
          <path class="cls-1" d="M37.11,110.94c-5.03-.29-9.62.12-13.65,1.46-2.88,1-5.36-.07-7.57-2.55-1.18-1.07-2.39-1.81-3.67-1.84l-7.54-7.2c4.15,3.36,8.77,5.25,14.1,4.91,1.57-.2,2.99.17,4.27,1.05-2.41-.31-4.96-.27-3.88.93.53.59,1.35.83,2.14.75,5.71-.59,11.04.02,15.8,2.48Z"/>
          <path class="cls-1" d="M55.3,116.15c-3.44-1.29-7-.95-10.8,2.44-1.89,1.48-4.21,2.41-7.09,2.66-1.2.03-2.94.31-4.84.67,1.9-.94,3.51-1.94,4.76-3,1.47-1.43,3.69-1.58,6.37-2.17,1.68-.37,2.31-1.71.34-1.91-6.09-.63-10.99,1.58-13.41,3.94-1.63,1.3-.8,1.63,1.61,1.33-2.52.86-4.98,1.51-7.35,1.8-1.24.05-1.84-.29-1.03-1.5-3.31.49-6.1.18-8.1-1.35,4.24.52,7.71-1.73,12.04-5.44,3.06-2.62,7.2-2.69,11.57-.99-7.47.48-11.82,1.97-12.04,4.82,2.05-2.9,7.51-4.27,17.72-3.51.07-.53-.21-1.04-.75-1.54,1.69.5,3.31,1.55,5.27,2.16,2.26.7,2.26-.56-.17-2.57,2.33,1.33,4.38,2.7,5.89,4.16Z"/>
          <path class="cls-1" d="M61.49,120.54c-6.78,1.97-11.88,4.85-10.57,11.55.28,1.42,5.81,1.09,5.81-1.76,2.16,3.22-5.21,6.39-17.17,9.52,1.82-1.47,2.71-3.07,2.7-4.8-1.8,2.7-5.04,7.25-6.67,3.07-4.56,1.5-6.8-.04-6.71-4.65,1.52,5.69,8.96,3.34,13.54-3.15-7.39,7.5-16.39,6-10.24-.71-.2.54-.27,1.04-.07,1.46,1.78-3.71,3.47-5.55,5.02-4.54-3.73,2.75-3.15,7.46,3.22,3.82,6.75-3.97,12.9-10.2,19.39-11.4l1.76,1.57Z"/>
          <path class="cls-1" d="M104.69,53.02c-1.53-.38-2.36-1.52-2.28-3.68.51-5.99-2.42-9.77-7.93-11.9,7.27,1.46,10.97,4.88,13.64,8.86.31-.61.33-1.4.25-2.25.74.62,1.2,1.51,1.38,2.64.67,3.74,3.37,5.4,4.02,2.7.25-1.35-.03-2.84-.7-3.85,1.14.32,1.91,1.07,2.39,2.14.82,1.69,3.08,1.63,1.86,5.74-.56,1.75.04,3.66,1.32,5.65,3.59,4.79,1.59,8.13-4.81,10.32,4.53-2.61,7.02-4.91,2.33-6.16-2.11-.38-3.93-.9-4.58-2,3.24-.09,2.43-1.89.29-4.27-.86-.95-1.87-1.77-3.05-2.28-1.76-.76-3.23-.69-4.36.3,1.47-2.49,4.83-1.59,9.56,1.8-2.81-5.37-10.23-9.18-9.34-3.77Z"/>
          <path class="cls-1" d="M111.33,45.96c-.32-1.23-1-2.2-2.1-2.87-1.41-.58-2.08-1.71-2.17-3.27-.06-1.11-.28-2.22-.86-3.18-1.71-2.81-4.99-4.63-9.18-5.88,3.55-.73,7.67.35,12.23,2.86.52.29,1.08.51,1.65.66,7.18,1.92,9.96,5.19,10.14,9.24.07,1.66.96,3.21,2.36,4.11.01,0,.02.02.04.02-3.13-.66-5.4-2.06-5.79-5.12-.23-1.42-.86-2.63-2.32-3.42-2.81-1.76-4.68-.59-1.56,1.93l2.39,1.74c-1.86-.81-4.13-1.57-4.37-1.35-.35.39,2.95,1.9,3.22,2.53-1.74-.52-1.27.36-2.74.19-.29-.03-.57.13-.68.39-.18.41-.25.88-.26,1.39Z"/>
          <path class="cls-1" d="M120.09,50.87c-1.76-2.17-2.59-4.16-2.91-6.05.93,2.57,3.13,3.88,6.16,4.36,2.31.14,4.07.68,4.11,2.53-1.25-.64-2.56-.56-.67,1.21,1.8,1.4,4.59,2.85,1.63,4.02-2.03.62-3.13,1.39-1.21,2.67,1.64.97,2.58.32,2.9-1.77,1.37,1.46,1.91,3.19-.84,5.99-1.9,1.58-3.59,3.15-4.7,4.72-.9,1.24-.37,2.25.31,1.52,2.16-2.9,4.71-2.94,4.42.37-.14,1.6-.92,2.74-1.66,3.6-2.54-1.15-5.03,1.12-3.05,8.69.65,2.6.75,5.15-.3,7.59,5.89-4.77,7.33-9.46,6.51-14.1-.61,2.96-1.87,5.84-3.79,8.64,0-1.58-.28-3.05-.81-4.42-.59-1.65.15-3.25,1.63-4.82,2.87-2.44,3.31-5.17,2.12-8.1-.63-1.95.78-4.06,2.96-6.22,1.49-1.67,1.31-3.53-.92-5.62,2.27,1.54,4.85,3.86,3.69,7.67-.71,1.65-1.94,2.6-1.05,3.79,1.05,1.48,1.1,3.02-1.41,4.71-1.26.9-1.14,2.96.3,2.96.61-.13,1.3-.71,1.35-2.27.03-.92.43-1.58,1.46-2.04.36-.16.65-.46.83-.81,1.21-2.29,1.5-4.54.97-6.75,1.44,3.22,1.01,6.33-.67,9.37-.43.77-.6,1.67-.5,2.54.26,2.39.84,4.42-.61,6.37-2.36,4.03-8.27,7.44-13.71,11.64,2.66-5.56,1.72-10.93-1.71-16.16-1.56-2.82-1.4-5.58.67-8.66,1.75-2.6.78-6.17-1.27-10.05-1.03-2.17-1.34-4.22-.15-5.99.23-.34.17-.8-.09-1.12Z"/>
          <path class="cls-1" d="M119.86,68.25c-17.32,7.71-5.79,13.22-4.19,16.2l.06,1.52c2.2-1.38,2.29-3.81-.7-7.73,4.91,5.09,4.17,8.13.87,10.24-1.51.98-2.75,2.15-3.74,3.52,3.27-2.06,5.12-1.75,5.26,1.38.06,5.82-1.12,10.69-4.78,13.61,1.96-.68,4.29-2.4,6.95-5.01,3.6-4.25,7.3-7,11.17-7.79-4.43,2.58-7.78,5.89-11.16,9.63-.56.62-1.22,1.14-1.96,1.53l-9.24,4.89c4.05-1.48,7.93-2.72,11.19-3.04,2.27-1.73,5.11-2.29,8.3-2.14,2.69-.48,3.58-2.11,3.71-4.22-1.79,2.82-3.99,4.33-7.06,2.95,4.19-4.81,21.08-10.26,15.22-3.8,3.97-1.43,6.24-4.87,1.86-5.15-2.31,0-4.51.25-6.61.76-1.29-.82-.67-1.24,1.24-1.38,1.12-.05,2.31.09,3.57.39-.12-.8-.46-1.71-.9-2.67-1.22-2.14-1.77-4.3-.59-6.5.77-1.52.51-2.95-.73-4.3.22,1.69.19,3.27-1.32,4.16-1.18.78-2.06,1.71-1.94,3.12-.04,1.26-.44,2.4-1.86,3.18-1.01-.44-1.77-1.08-1.49-2.56-1.62.22-3.04.82-3.57,2.98-.34,1.66-1.04,2.55-2.56,1.57-.8-.45-1.7-.18-2.22,1.24-1.25,3.38-2.49,6.2-5.43,7.48,2.33-2.2,3.43-4.93,2.73-8.44-.54-2.35-.83-4.56.25-6.02-.04,2.31,0,4.41,1.49,2.45,2.05-3.48,1.41-7.01-3.85-10.66-1.71-1.54-2.15-2.85.14-1.88s2.53.17.39-2.73c-1.18-1.56-1.55-3.46,1.52-6.81Z"/>
          <path class="cls-1" d="M113.25,92.86c1.19,4.97.51,8.79-4.35,10.01-1.78.57-4.03.97-2.74,3.07.72,1.26.21,1.97-1.87,1.97-1.71.04-2.97.55-3.09,2.21-.27.94-1.28,1.73-2.72,2.44,13.1-3.2,18.56-9.55,14.77-19.71Z"/>
          <path class="cls-1" d="M106.87,112.06c5.03-.29,9.62.12,13.65,1.46,2.88,1,5.36-.07,7.57-2.55,1.18-1.07,2.39-1.81,3.67-1.84l7.54-7.2c-4.15,3.36-8.77,5.25-14.1,4.91-1.57-.2-2.99.17-4.27,1.05,2.41-.31,4.96-.27,3.88.93-.53.59-1.35.83-2.14.75-5.71-.59-11.04.02-15.8,2.48Z"/>
          <path class="cls-1" d="M88.69,117.27c3.44-1.29,7-.95,10.8,2.44,1.89,1.48,4.21,2.41,7.09,2.66,1.2.03,2.94.31,4.84.67-1.9-.94-3.51-1.94-4.76-3-1.47-1.43-3.69-1.58-6.37-2.17-1.68-.37-2.31-1.71-.34-1.91,6.09-.63,10.99,1.58,13.41,3.94,1.63,1.3.8,1.63-1.61,1.33,2.52.86,4.98,1.51,7.35,1.8,1.24.05,1.84-.29,1.03-1.5,3.31.49,6.1.18,8.1-1.35-4.24.52-7.71-1.73-12.04-5.44-3.06-2.62-7.2-2.69-11.57-.99,7.47.48,11.82,1.97,12.04,4.82-2.05-2.9-7.51-4.27-17.72-3.51-.07-.53.21-1.04.75-1.54-1.69.5-3.31,1.55-5.27,2.16-2.26.7-2.26-.56.17-2.57-2.33,1.33-4.38,2.7-5.89,4.16Z"/>
          <path class="cls-1" d="M111.85,80.83c.55,15.3-8.32,24.24-19.35,31.72-5.36,3.67-12.2,8.75-19.52,14.29-7.04-4.75-13.2-10.19-19.24-14.23-12.59-8.43-20.2-17.4-19.86-32.12,1.2,12.17,8.53,22.72,24.24,31.05,6.51,3.54,13.9,8.87,14.68.51.89,4.63,3.42,5.82,8.44,2.91,1.74-1.01,3.52-1.98,5.35-2.83,14.37-6.67,23.62-16.57,25.25-31.29Z"/>
          <path class="cls-1" d="M66.1,49.11l-8.7-16.54c-.25-1.5.56-2.98,1.84-4.46-2.38.71-4.3.81-5.25-.45l-11.25-14.89,8.21,14.89c1.49,2.32,1.03,4.46-1.09,6.45,2.68-.7,4.83-.6,5.85,1.2l10.39,13.8Z"/>
          <path class="cls-1" d="M79.64,49.11l8.7-16.54c.25-1.5-.56-2.98-1.84-4.46,2.38.71,4.3.81,5.25-.45l11.25-14.89-8.21,14.89c-1.49,2.32-1.03,4.46,1.09,6.45-2.68-.7-4.83-.6-5.85,1.2l-10.39,13.8Z"/>
          <path class="cls-1" d="M73.04,49.11l-1.89-21.18c-.68-1.59-2.36-2.53-4.48-3.18,2.69-.75,4.58-1.83,4.71-3.61l1.55-21.14,1.34,19.3c0,3.13,1.75,4.91,4.99,5.55-2.97.95-4.95,2.35-4.82,4.7l-1.4,19.57Z"/>
          <path class="cls-1" d="M83.91,120.5c6.78,1.97,11.88,4.85,10.57,11.55-.28,1.42-5.81,1.09-5.81-1.76-2.16,3.22,5.21,6.39,17.17,9.52-1.82-1.47-2.71-3.07-2.7-4.8,1.8,2.7,5.04,7.25,6.67,3.07,4.56,1.5,6.8-.04,6.71-4.65-1.52,5.69-8.96,3.34-13.54-3.15,7.39,7.5,16.39,6,10.24-.71.2.54.27,1.04.07,1.46-1.78-3.71-3.47-5.55-5.02-4.54,3.73,2.75,3.15,7.46-3.22,3.82-6.75-3.97-12.9-10.2-19.39-11.4l-1.76,1.57Z"/>
          <text class="cls-2" transform="translate(49.15 89.49)"><tspan x="0" y="0"> </tspan></text>
          <path class="cls-1" d="M36.45,67.58c3.68-7.73,11.08-12.72,23.17-14.26-5.41-.05-11.85.31-8.66-3.23-7.78,4.57-12.17,10.59-14.51,17.49Z"/>
          <path class="cls-1" d="M39.27,66.24c-14.25,24.3,15.67,53.7,48.3,40.2-10.59,2.65-12.88,2.32-6-1.31-31.62,6.16-52.87-15.19-42.3-38.89Z"/>
          <path class="cls-1" d="M84,104.57c15.84-6.31,24.99-14.89,26.21-26.16-.44,11.14-7,19.29-17.61,25.48,5.26-3.42,2.93-3.44-8.61.67Z"/>
          <path class="cls-1" d="M109.26,69.24c-6.69-16.32-18.72-19.54-34.26-16.14,8.68-2.23,12.84-4.14,7.48-5.34,11.98,1.89,21.58,7.89,26.77,21.49Z"/>
          <path class="cls-1" d="M74.07,45.22c.16-.11,6.25.41,6.22.52l.41-.64c-2.16-.39-4.32-.68-6.51-.82l-.13.94Z"/>
          <path class="cls-1" d="M84.02,45.84c5.98,1.59,10.58,4.3,14.46,7.57-3.95-3.15-8.84-5.47-14.62-7.01l.17-.56Z"/>
          <path class="cls-1" d="M62.46,40.44c3.04-1.81,5.7-4.09,8.02-6.81l-.08-2.33-1.04-1.49c-2.15,3.5-4.98,6.08-8.35,7.9l1.46,2.73Z"/>
          <path class="cls-1" d="M83.18,40.47c-3.04-1.81-5.7-4.09-8.02-6.81l.08-2.33,1.04-1.49c2.15,3.5,4.98,6.08,8.35,7.9l-1.46,2.73Z"/>
          <path class="cls-1" d="M100.03,49.86c-3.98-3.08-8.36-5.7-13.44-7.51.79-.9,1.46-1.79,1.94-2.67,3.2,1.18,7.47,2.08,10.84,2.49,0,.67.22,1.12.36,2.12-3.03-.5-5.76-1.23-8.21-2.19,2.95,1.25,5.76,2.92,8.49,4.81-.09.75-.07,1.77.03,2.95Z"/>
        </g>
        <g>
          <path class="cls-1" d="M94.27,54.19c6.41,2.58,9.42,5.94,10.56,10.66l-10.47,28.91h-7.54l8.6-23.98-12.52,23.98h-5.73l4.72-23.87-8.34,23.87h-7.47l10.86-32.17,12.42-.15-4.73,19.67,9.76-19.67,4.38-.04c1.96,1.66,1.86,4.84,1.15,8.07,2.89-7.12-.23-11.6-5.65-15.29Z"/>
          <path class="cls-1" d="M46.72,93.76h1.9l3.55-11.45,5.99-.08c6.09-.92,11.26-2.98,13.01-9.3,2.7-7.34.72-11.24-6.36-11.4l-15.38-.22-8.84,25.35c-.21,5.43,3.92,10.05,10.19,14.03-3.99-3.5-10.39-11.42-7.59-15.23-1.45,3.67,1.79,7.79,3.53,8.3ZM61.37,72.25c-.63,2.04-1.83,3.39-3.55,3.49l-3.38-.06,2.74-8.06h2.79c1.66.02,2.73,1.03,1.4,4.63Z"/>
        </g>
      </g>
      <g>
        <path class="cls-1" d="M63.3,28.74l-2.39-9.52c.06-.8.65-1.45,1.49-2.05-1.3.07-2.3-.12-2.62-.88l-3.9-9,2.35,8.62c.47,1.37-.02,2.4-1.35,3.16,1.45-.02,2.54.29,2.84,1.34l3.59,8.33Z"/>
        <path class="cls-1" d="M80.69,29.47l2.39-9.52c-.06-.8-.65-1.45-1.49-2.05,1.3.07,2.3-.12,2.62-.88l3.9-9-2.35,8.62c-.47,1.37.02,2.4,1.35,3.16-1.45-.02-2.54.29-2.84,1.34l-3.59,8.33Z"/>
      </g>
    </g>
  </g>
</svg>